{
    "asset" : {
        "generator" : "Khronos glTF Blender I/O v1.7.33",
        "version" : "2.0"
    },
    "extensionsUsed" : [
        "KHR_materials_transmission"
    ],
    "scene" : 0,
    "scenes" : [
        {
            "name" : "Scene",
            "nodes" : [
                0,
                1,
                2,
                3
            ]
        }
    ],
    "nodes" : [
        {
            "mesh" : 0,
            "name" : "Earth",
            "rotation" : [
                -0.9069380164146423,
                -0.38107091188430786,
                0.17957903444766998,
                -2.1732626009907108e-07
            ],
            "scale" : [
                2.3791143894195557,
                2.271317958831787,
                2.3791143894195557
            ],
            "translation" : [
                0,
                -0.01728992909193039,
                0
            ]
        },
        {
            "mesh" : 1,
            "name" : "Domain",
            "scale" : [
                3.1663622856140137,
                3.1663622856140137,
                3.1663622856140137
            ],
            "translation" : [
                0,
                6.659671783447266,
                0
            ]
        },
        {
            "mesh" : 2,
            "name" : "Inflow",
            "scale" : [
                0.5184415578842163,
                0.5184415578842163,
                0.5184415578842163
            ],
            "translation" : [
                0,
                7.835833549499512,
                0
            ]
        },
        {
            "mesh" : 3,
            "name" : "Obstacle",
            "scale" : [
                2.4753053188323975,
                2.4753053188323975,
                2.4753053188323975
            ],
            "translation" : [
                0,
                6.659671783447266,
                0
            ]
        }
    ],
    "materials" : [
        {
            "doubleSided" : true,
            "name" : "Material.001",
            "normalTexture" : {
                "index" : 0
            },
            "pbrMetallicRoughness" : {
                "baseColorTexture" : {
                    "index" : 1
                },
                "metallicFactor" : 0,
                "metallicRoughnessTexture" : {
                    "index" : 2
                }
            }
        },
        {
            "doubleSided" : true,
            "extensions" : {
                "KHR_materials_transmission" : {
                    "transmissionFactor" : 1
                }
            },
            "name" : "water",
            "pbrMetallicRoughness" : {
                "baseColorFactor" : [
                    0.7991032600402832,
                    0.7991029024124146,
                    0.7991030216217041,
                    1
                ],
                "metallicFactor" : 0,
                "roughnessFactor" : 0
            }
        },
        {
            "doubleSided" : true,
            "extensions" : {
                "KHR_materials_transmission" : {
                    "transmissionFactor" : 1
                }
            },
            "name" : "Material",
            "pbrMetallicRoughness" : {
                "baseColorFactor" : [
                    0.800000011920929,
                    0.800000011920929,
                    0.800000011920929,
                    1
                ],
                "metallicFactor" : 0,
                "roughnessFactor" : 0
            }
        },
        {
            "alphaMode" : "BLEND",
            "doubleSided" : true,
            "name" : "transparent",
            "pbrMetallicRoughness" : {
                "baseColorFactor" : [
                    0.800000011920929,
                    0.800000011920929,
                    0.800000011920929,
                    0
                ],
                "metallicFactor" : 0,
                "roughnessFactor" : 0.5
            }
        }
    ],
    "meshes" : [
        {
            "name" : "Sphere",
            "primitives" : [
                {
                    "attributes" : {
                        "POSITION" : 0,
                        "NORMAL" : 1,
                        "TEXCOORD_0" : 2
                    },
                    "indices" : 3,
                    "material" : 0
                }
            ]
        },
        {
            "name" : "Cube.001",
            "primitives" : [
                {
                    "attributes" : {
                        "POSITION" : 4,
                        "NORMAL" : 5,
                        "TEXCOORD_0" : 6
                    },
                    "indices" : 7,
                    "material" : 1
                }
            ]
        },
        {
            "name" : "Icosphere",
            "primitives" : [
                {
                    "attributes" : {
                        "POSITION" : 8,
                        "NORMAL" : 9,
                        "TEXCOORD_0" : 10
                    },
                    "indices" : 11,
                    "material" : 2
                }
            ]
        },
        {
            "name" : "Sphere.004",
            "primitives" : [
                {
                    "attributes" : {
                        "POSITION" : 12,
                        "NORMAL" : 13,
                        "TEXCOORD_0" : 14
                    },
                    "indices" : 15,
                    "material" : 3
                }
            ]
        }
    ],
    "textures" : [
        {
            "sampler" : 0,
            "source" : 0
        },
        {
            "sampler" : 0,
            "source" : 1
        },
        {
            "sampler" : 0,
            "source" : 2
        }
    ],
    "images" : [
        {
            "mimeType" : "image/jpeg",
            "name" : "aerial_rocks_04_nor_dx_4k",
            "uri" : "textures/aerial_rocks_04_nor_dx_4k.jpg"
        },
        {
            "mimeType" : "image/jpeg",
            "name" : "aerial_rocks_04_diff_4k",
            "uri" : "textures/aerial_rocks_04_diff_4k.jpg"
        },
        {
            "mimeType" : "image/png",
            "name" : "aerial_rocks_04_rough_4k",
            "uri" : "textures/aerial_rocks_04_rough_4k.png"
        }
    ],
    "accessors" : [
        {
            "bufferView" : 0,
            "componentType" : 5126,
            "count" : 1902,
            "max" : [
                0.9860397577285767,
                0.9975767135620117,
                0.9860394597053528
            ],
            "min" : [
                -0.9860391616821289,
                -0.9975767135620117,
                -0.9860392212867737
            ],
            "type" : "VEC3"
        },
        {
            "bufferView" : 1,
            "componentType" : 5126,
            "count" : 1902,
            "type" : "VEC3"
        },
        {
            "bufferView" : 2,
            "componentType" : 5126,
            "count" : 1902,
            "type" : "VEC2"
        },
        {
            "bufferView" : 3,
            "componentType" : 5123,
            "count" : 10926,
            "type" : "SCALAR"
        },
        {
            "bufferView" : 4,
            "componentType" : 5126,
            "count" : 24,
            "max" : [
                1,
                1,
                1
            ],
            "min" : [
                -1,
                -1,
                -1
            ],
            "type" : "VEC3"
        },
        {
            "bufferView" : 5,
            "componentType" : 5126,
            "count" : 24,
            "type" : "VEC3"
        },
        {
            "bufferView" : 6,
            "componentType" : 5126,
            "count" : 24,
            "type" : "VEC2"
        },
        {
            "bufferView" : 7,
            "componentType" : 5123,
            "count" : 36,
            "type" : "SCALAR"
        },
        {
            "bufferView" : 8,
            "componentType" : 5126,
            "count" : 240,
            "max" : [
                0.9510578513145447,
                1,
                0.9999999403953552
            ],
            "min" : [
                -0.9510578513145447,
                -1,
                -0.9999999403953552
            ],
            "type" : "VEC3"
        },
        {
            "bufferView" : 9,
            "componentType" : 5126,
            "count" : 240,
            "type" : "VEC3"
        },
        {
            "bufferView" : 10,
            "componentType" : 5126,
            "count" : 240,
            "type" : "VEC2"
        },
        {
            "bufferView" : 11,
            "componentType" : 5123,
            "count" : 240,
            "type" : "SCALAR"
        },
        {
            "bufferView" : 12,
            "componentType" : 5126,
            "count" : 3008,
            "max" : [
                0.9999997019767761,
                0.5555702447891235,
                0.9999994039535522
            ],
            "min" : [
                -0.9999990463256836,
                -1,
                -0.9999987483024597
            ],
            "type" : "VEC3"
        },
        {
            "bufferView" : 13,
            "componentType" : 5126,
            "count" : 3008,
            "type" : "VEC3"
        },
        {
            "bufferView" : 14,
            "componentType" : 5126,
            "count" : 3008,
            "type" : "VEC2"
        },
        {
            "bufferView" : 15,
            "componentType" : 5123,
            "count" : 4416,
            "type" : "SCALAR"
        }
    ],
    "bufferViews" : [
        {
            "buffer" : 0,
            "byteLength" : 22824,
            "byteOffset" : 0
        },
        {
            "buffer" : 0,
            "byteLength" : 22824,
            "byteOffset" : 22824
        },
        {
            "buffer" : 0,
            "byteLength" : 15216,
            "byteOffset" : 45648
        },
        {
            "buffer" : 0,
            "byteLength" : 21852,
            "byteOffset" : 60864
        },
        {
            "buffer" : 0,
            "byteLength" : 288,
            "byteOffset" : 82716
        },
        {
            "buffer" : 0,
            "byteLength" : 288,
            "byteOffset" : 83004
        },
        {
            "buffer" : 0,
            "byteLength" : 192,
            "byteOffset" : 83292
        },
        {
            "buffer" : 0,
            "byteLength" : 72,
            "byteOffset" : 83484
        },
        {
            "buffer" : 0,
            "byteLength" : 2880,
            "byteOffset" : 83556
        },
        {
            "buffer" : 0,
            "byteLength" : 2880,
            "byteOffset" : 86436
        },
        {
            "buffer" : 0,
            "byteLength" : 1920,
            "byteOffset" : 89316
        },
        {
            "buffer" : 0,
            "byteLength" : 480,
            "byteOffset" : 91236
        },
        {
            "buffer" : 0,
            "byteLength" : 36096,
            "byteOffset" : 91716
        },
        {
            "buffer" : 0,
            "byteLength" : 36096,
            "byteOffset" : 127812
        },
        {
            "buffer" : 0,
            "byteLength" : 24064,
            "byteOffset" : 163908
        },
        {
            "buffer" : 0,
            "byteLength" : 8832,
            "byteOffset" : 187972
        }
    ],
    "samplers" : [
        {
            "magFilter" : 9729,
            "minFilter" : 9987
        }
    ],
    "buffers" : [
        {
            "byteLength" : 196804,
            "uri" : "RS_building.bin"
        }
    ]
}
