<svg xmlns="http://www.w3.org/2000/svg" viewBox="0 0 389 366.85"><defs><style>.cls-1,.cls-4,.cls-5{fill:#fff;}.cls-1{opacity:0.4;}.cls-2,.cls-3{fill:none;stroke:#f2f2f2;stroke-miterlimit:10;}.cls-2{stroke-width:5.7px;}.cls-3{stroke-width:3.96px;}.cls-4{opacity:0.8;}</style></defs><g id="Livello_2" data-name="Livello 2"><g id="Livello_2-2" data-name="Livello 2"><path class="cls-1" d="M297.27,198.1,225.09,359.25,172.93,310S256.63,256.56,297.27,198.1Z"/><path class="cls-1" d="M182.58,97.78l-159,76.74,50.74,50.74S125.3,140.07,182.58,97.78Z"/><path class="cls-1" d="M226.41,270.83c10.45-8.78,20.87-18.32,31.11-28.56,4.21-4.2,8.41-8.56,12.59-13L159.29,118.42c-4.46,4.18-8.82,8.38-13,12.59-10.24,10.24-19.77,20.66-28.55,31.11Z"/><path class="cls-2" d="M146.11,312.61a13.87,13.87,0,0,0,16.4,2.4c30.35-16.37,63.54-41.26,95-72.74C334.68,165.11,409.83,40.65,379.11,9.93S223.42,53.85,146.26,131c-31.48,31.47-56.37,64.66-72.73,95a13.87,13.87,0,0,0,2.39,16.4Z"/><circle class="cls-2" cx="296.79" cy="91.74" r="38.45"/><circle class="cls-3" cx="296.79" cy="91.74" r="26.76"/><ellipse class="cls-4" cx="177.51" cy="211.02" rx="84.67" ry="2.9" transform="translate(-97.22 187.33) rotate(-45)"/><path class="cls-1" d="M319.06,11.7,377.2,69.83c10.48-27.31,12.57-49.25,1.91-59.9S346.46,1.3,319.06,11.7Z"/><path class="cls-5" d="M113.24,304.51a24.59,24.59,0,1,1-26.5-30.28,43.75,43.75,0,0,0-47.28,9.65C24.82,298.51,5.77,339.32.13,350.27a1.12,1.12,0,0,0,1.46,1.54c22.59-10.12,62-25.48,34.31,10.1-3.87,5,36.77,13.27,66.12-16.86A43.18,43.18,0,0,0,113.24,304.51Z"/></g></g></svg>