<svg xmlns="http://www.w3.org/2000/svg" viewBox="0 0 473.98 280.99"><defs><style>.cls-1,.cls-3{fill:none;}.cls-1{stroke:#f2f2f2;stroke-miterlimit:10;stroke-width:9px;}.cls-2{fill:#fff;opacity:0.4;}.cls-3{stroke:#fff;stroke-linecap:round;stroke-linejoin:round;stroke-width:14.97px;}</style></defs><g id="Livello_2" data-name="Livello 2"><g id="Livello_2-2" data-name="Livello 2"><path class="cls-1" d="M469.47,115.43c0,29.58-101.77,77.65-230.17,77.65S4.5,139.46,4.5,115.43C4.5,93.24,108.59,4.5,237,4.5S469.47,85.85,469.47,115.43Z"/><path class="cls-2" d="M346.26,23.41A328.58,328.58,0,0,0,237.91,4.5C198.64,4.5,161.64,12.81,129.2,25a111.39,111.39,0,1,0,217.06-1.56ZM296.6,140.78c-18.39-19.47-19.88-19.59-41.05-3.17,19.47-18.4,19.59-19.89,3.17-41.06,18.4,19.47,19.89,19.59,41.06,3.17C280.3,118.12,280.19,119.61,296.6,140.78Zm-58.69,17.93c-3.41-69.93-6.17-72.69-76.1-76.1,69.93-3.4,72.69-6.17,76.1-76.1,3.41,69.93,6.17,72.7,76.1,76.1C244.08,86,241.32,88.78,237.91,158.71Z"/><line class="cls-3" x1="237.7" y1="226.3" x2="237.7" y2="273.5"/><line class="cls-3" x1="303.48" y1="221.44" x2="315.7" y2="267.04"/><line class="cls-3" x1="368.56" y1="208.99" x2="395.63" y2="247.66"/><line class="cls-3" x1="171.92" y1="221.44" x2="159.7" y2="267.04"/><line class="cls-3" x1="106.85" y1="208.99" x2="79.77" y2="247.66"/></g></g></svg>