<svg xmlns="http://www.w3.org/2000/svg" viewBox="0 0 401.2 431.29"><defs><style>.cls-1,.cls-3,.cls-5,.cls-6{fill:none;}.cls-1,.cls-2,.cls-3,.cls-5,.cls-6{stroke:#f2f2f2;}.cls-1,.cls-5,.cls-6{stroke-miterlimit:10;}.cls-1,.cls-2,.cls-5,.cls-6{stroke-width:7.29px;}.cls-2,.cls-4{fill:#f2f2f2;}.cls-2,.cls-3{stroke-linejoin:round;}.cls-2{opacity:0.7;}.cls-3{stroke-width:8.12px;}.cls-5,.cls-6{stroke-linecap:round;}.cls-6{stroke-dasharray:14.67 14.67;}</style></defs><g id="Livello_2" data-name="Livello 2"><g id="Livello_2-2" data-name="Livello 2"><path class="cls-1" d="M15.53,72h341a41,41,0,0,1,41,41V386.61a41,41,0,0,1-41,41h-310A42.91,42.91,0,0,1,3.65,384.73V83.92A11.88,11.88,0,0,1,15.53,72Z"/><path class="cls-2" d="M42.86,3.65h0A39.2,39.2,0,0,0,3.65,42.86V388.44a39.2,39.2,0,0,1,39.21-39.21h0a39.2,39.2,0,0,1,39.2,39.21V42.86A39.2,39.2,0,0,0,42.86,3.65Z"/><path class="cls-3" d="M164.82,153.79c0,8.7-11.17,28.94-15.74,28.94s-15.74-20.24-15.74-28.94a15.74,15.74,0,0,1,31.48,0Z"/><circle class="cls-4" cx="149.34" cy="153.29" r="4.06"/><path class="cls-3" d="M344.45,209.42c0,8.69-11.17,28.94-15.74,28.94S313,218.11,313,209.42a15.74,15.74,0,0,1,31.48,0Z"/><circle class="cls-4" cx="328.97" cy="208.91" r="4.06"/><path class="cls-3" d="M230.47,319.75c0,8.69-11.17,28.94-15.73,28.94S199,328.44,199,319.75a15.74,15.74,0,1,1,31.47,0Z"/><circle class="cls-4" cx="214.99" cy="319.24" r="4.06"/><path class="cls-5" d="M164.6,189.12c1-.58,3.28-1.81,6.5-3.3"/><path class="cls-6" d="M184.75,180.47c16.91-5.47,42-9.53,67.38,1.35C299,201.92,325.76,264,302.28,311.3c-15.82,31.84-51.21,53.42-87.53,51.06-30.61-2-64.73-21-73.86-51.06-1.27-4.17-8.93-31.18,7.29-46.5,8.58-8.09,23.29-12.42,36.48-7.3a33.18,33.18,0,0,1,6.26,3.27"/><path class="cls-5" d="M196.54,265.48a37.9,37.9,0,0,1,4.53,5.7"/></g></g></svg>