<?xml version="1.0" encoding="UTF-8"?><svg xmlns="http://www.w3.org/2000/svg" viewBox="0 0 372 372"><defs><style>.d{stroke-linecap:round;stroke-width:20px;}.d,.e{fill:none;stroke:#fff;stroke-miterlimit:10;}.e{stroke-width:9.82px;}.f{fill:#fff;opacity:.4;}</style></defs><g id="a"/><g id="b"><g id="c"><g><path class="d" d="M10,138.5V61.36c0-28.37,22.99-51.36,51.36-51.36h73.64"/><path class="d" d="M135,362H61.36c-28.37,0-51.36-22.99-51.36-51.36v-71.14"/><path class="d" d="M362,239.5v71.14c0,28.37-22.99,51.36-51.36,51.36h-74.64"/><path class="d" d="M236,10h74.64c28.37,0,51.36,22.99,51.36,51.36v77.14"/></g><g><rect class="e" x="68.25" y="67.25" width="108" height="108" rx="23.66" ry="23.66"/><rect class="e" x="195.75" y="67.75" width="108" height="108" rx="23.66" ry="23.66"/><rect class="e" x="68.62" y="194.12" width="108" height="108" rx="23.66" ry="23.66"/><g><rect class="f" x="196.07" y="195.07" width="41.61" height="41.61" rx="20.8" ry="20.8"/><rect class="f" x="261.14" y="195.07" width="41.61" height="41.61" rx="20.8" ry="20.8"/><rect class="f" x="196.07" y="260.14" width="41.61" height="41.61" rx="20.8" ry="20.8"/><rect class="f" x="261.14" y="260.14" width="41.61" height="41.61" rx="20.8" ry="20.8"/><circle class="f" cx="249.27" cy="248.27" r="10.99"/></g></g></g></g></svg>