<?xml version="1.0" encoding="utf-8"?>
<!-- Generator: Adobe Illustrator 26.0.3, SVG Export Plug-In . SVG Version: 6.00 Build 0)  -->
<svg version="1.1" id="Livello_1" xmlns="http://www.w3.org/2000/svg" xmlns:xlink="http://www.w3.org/1999/xlink" x="0px" y="0px"
	 viewBox="0 0 474 400.5" style="enable-background:new 0 0 474 400.5;" xml:space="preserve">
<style type="text/css">
	.st0{fill:none;stroke:#F2F2F2;stroke-width:9;stroke-miterlimit:10;}
	.st1{opacity:0.4;fill:#FFFFFF;enable-background:new    ;}
	.st2{fill:none;stroke:#FFFFFF;stroke-width:14.97;stroke-linecap:round;stroke-linejoin:round;}
</style>
<g id="Livello_2_00000083801989290360025170000000162845477629083277_">
	<g id="Livello_2-2">
		<path class="st0" d="M469.5,197.9c0,29.6-101.8,77.7-230.2,77.7S4.5,221.9,4.5,197.9C4.5,175.7,108.6,86.9,237,86.9
			S469.5,168.3,469.5,197.9z"/>
		<path class="st1" d="M346.3,105.9c-34.8-12.3-71.4-18.7-108.4-18.9c-39.3,0-76.3,8.3-108.7,20.5c-13.4,60,24.4,119.6,84.4,133
			c60,13.4,119.6-24.4,133-84.4C350.3,139.5,350.2,122.3,346.3,105.9L346.3,105.9z M296.6,223.2c-18.4-19.5-19.9-19.6-41.1-3.2
			c19.5-18.4,19.6-19.9,3.2-41.1c18.4,19.5,19.9,19.6,41.1,3.2C280.3,200.6,280.2,202.1,296.6,223.2z M237.9,241.1
			c-3.4-69.9-6.2-72.7-76.1-76.1c69.9-3.4,72.7-6.2,76.1-76.1c3.4,69.9,6.2,72.7,76.1,76.1C244.1,168.4,241.3,171.2,237.9,241.1
			L237.9,241.1z"/>
		<line class="st2" x1="237.7" y1="308.7" x2="237.7" y2="355.9"/>
		<line class="st2" x1="303.5" y1="303.9" x2="315.7" y2="349.5"/>
		<line class="st2" x1="368.6" y1="291.4" x2="395.6" y2="330.1"/>
		<line class="st2" x1="171.9" y1="303.9" x2="159.7" y2="349.5"/>
		<line class="st2" x1="106.8" y1="291.4" x2="79.8" y2="330.1"/>
	</g>
</g>
</svg>
