<?xml version="1.0" encoding="utf-8"?>
<!-- Generator: Adobe Illustrator 26.0.3, SVG Export Plug-In . SVG Version: 6.00 Build 0)  -->
<svg version="1.1" id="Livello_1" xmlns="http://www.w3.org/2000/svg" xmlns:xlink="http://www.w3.org/1999/xlink" x="0px" y="0px"
	 viewBox="0 0 401.2 476.1" style="enable-background:new 0 0 401.2 476.1;" xml:space="preserve">
<style type="text/css">
	.st0{fill:none;stroke:#F2F2F2;stroke-width:7.29;stroke-miterlimit:10;}
	.st1{opacity:0.7;fill:#F2F2F2;stroke:#F2F2F2;stroke-width:7.29;stroke-linejoin:round;enable-background:new    ;}
	.st2{fill:none;stroke:#F2F2F2;stroke-width:8.12;stroke-linejoin:round;}
	.st3{fill:#F2F2F2;}
	.st4{fill:none;stroke:#F2F2F2;stroke-width:7.29;stroke-linecap:round;stroke-miterlimit:10;}
	.st5{fill:none;stroke:#F2F2F2;stroke-width:7.29;stroke-linecap:round;stroke-miterlimit:10;stroke-dasharray:14.67,14.67;}
</style>
<g id="Livello_2_00000037682499289959265010000008571516858822125726_">
	<g id="Livello_2-2">
		<path class="st0" d="M15.5,72h341c22.6,0,41,18.4,41,41l0,0v273.6c0,22.6-18.4,41-41,41h-310c-23.7,0-42.9-19.2-42.9-42.9V83.9
			C3.6,77.4,8.9,72,15.5,72C15.5,72,15.5,72,15.5,72z"/>
		<path class="st1" d="M42.9,3.7L42.9,3.7C21.2,3.6,3.7,21.2,3.6,42.8c0,0,0,0,0,0v345.6c0-21.6,17.5-39.2,39.2-39.2c0,0,0,0,0,0
			l0,0c21.6,0,39.2,17.6,39.2,39.2c0,0,0,0,0,0V42.9C82.1,21.2,64.5,3.7,42.9,3.7C42.9,3.6,42.9,3.6,42.9,3.7z"/>
		<path class="st2" d="M164.8,153.8c0,8.7-11.2,28.9-15.7,28.9s-15.7-20.2-15.7-28.9c0-8.7,7.1-15.7,15.7-15.7
			C157.8,138.1,164.8,145.1,164.8,153.8L164.8,153.8z"/>
		<circle class="st3" cx="149.3" cy="153.3" r="4.1"/>
		<path class="st2" d="M344.5,209.4c0,8.7-11.2,28.9-15.7,28.9S313,218.1,313,209.4c0-8.7,7-15.7,15.7-15.7
			C337.4,193.7,344.5,200.7,344.5,209.4L344.5,209.4z"/>
		<circle class="st3" cx="329" cy="208.9" r="4.1"/>
		<path class="st2" d="M230.5,319.8c0,8.7-11.2,28.9-15.7,28.9S199,328.4,199,319.8c-0.2-8.7,6.6-15.9,15.3-16.1
			c8.7-0.2,15.9,6.6,16.1,15.3C230.5,319.2,230.5,319.5,230.5,319.8z"/>
		<circle class="st3" cx="215" cy="319.2" r="4.1"/>
		<path class="st4" d="M164.6,189.1c1-0.6,3.3-1.8,6.5-3.3"/>
		<path class="st5" d="M184.8,180.5c16.9-5.5,42-9.5,67.4,1.4c46.9,20.1,73.6,82.2,50.1,129.5c-15.8,31.8-51.2,53.4-87.5,51.1
			c-30.6-2-64.7-21-73.9-51.1c-1.3-4.2-8.9-31.2,7.3-46.5c8.6-8.1,23.3-12.4,36.5-7.3c2.2,0.9,4.3,2,6.3,3.3"/>
		<path class="st4" d="M196.5,265.5c1.7,1.8,3.2,3.7,4.5,5.7"/>
	</g>
</g>
</svg>
