<?xml version="1.0" encoding="utf-8"?>
<!-- Generator: Adobe Illustrator 26.0.3, SVG Export Plug-In . SVG Version: 6.00 Build 0)  -->
<svg version="1.1" id="Livello_1" xmlns="http://www.w3.org/2000/svg" xmlns:xlink="http://www.w3.org/1999/xlink" x="0px" y="0px"
	 viewBox="0 0 389 400.1" style="enable-background:new 0 0 389 400.1;" xml:space="preserve">
<style type="text/css">
	.st0{opacity:0.4;fill:#FFFFFF;enable-background:new    ;}
	.st1{fill:none;stroke:#F2F2F2;stroke-width:5.7;stroke-miterlimit:10;}
	.st2{fill:none;stroke:#F2F2F2;stroke-width:3.96;stroke-miterlimit:10;}
	.st3{opacity:0.8;fill:#FFFFFF;enable-background:new    ;}
	.st4{fill:#FFFFFF;}
</style>
<g id="Livello_2_00000031189766861171837380000015188287409211682179_">
	<g id="Livello_2-2">
		<path class="st0" d="M297.3,215.2l-72.2,161.1l-52.2-49.2C172.9,327.1,256.6,273.6,297.3,215.2z"/>
		<path class="st0" d="M182.6,114.9l-159,76.7l50.7,50.7C74.3,242.3,125.3,157.1,182.6,114.9z"/>
		<path class="st0" d="M226.4,287.9c10.4-8.8,20.9-18.3,31.1-28.6c4.2-4.2,8.4-8.6,12.6-13L159.3,135.5c-4.5,4.2-8.8,8.4-13,12.6
			c-10.2,10.2-19.8,20.7-28.6,31.1L226.4,287.9z"/>
		<path class="st1" d="M146.1,329.7c4.3,4.3,11,5.3,16.4,2.4c30.4-16.4,63.5-41.3,95-72.7C334.7,182.2,409.8,57.7,379.1,27
			S223.4,70.9,146.3,148.1c-31.5,31.5-56.4,64.7-72.7,95c-2.9,5.4-1.9,12.1,2.4,16.4L146.1,329.7z"/>
		<circle class="st1" cx="296.8" cy="108.8" r="38.5"/>
		<circle class="st2" cx="296.8" cy="108.8" r="26.8"/>
		
			<ellipse transform="matrix(0.7071 -0.7071 0.7071 0.7071 -109.2955 192.3276)" class="st3" cx="177.5" cy="228.1" rx="84.7" ry="2.9"/>
		<path class="st0" d="M319.1,28.8l58.1,58.1c10.5-27.3,12.6-49.2,1.9-59.9S346.5,18.4,319.1,28.8z"/>
		<path class="st4" d="M113.2,321.6c-3.2,13.2-16.5,21.3-29.7,18.1s-21.3-16.5-18.1-29.7c2.5-10.1,11-17.5,21.3-18.6
			c-16.3-6.6-34.9-2.8-47.3,9.6c-14.6,14.6-33.7,55.4-39.3,66.4c-0.3,0.5-0.1,1.2,0.5,1.5c0.3,0.2,0.7,0.2,1,0
			c22.6-10.1,62-25.5,34.3,10.1c-3.9,5,36.8,13.3,66.1-16.9C112.5,351.5,116.8,336.1,113.2,321.6z"/>
	</g>
</g>
</svg>
