<svg xmlns="http://www.w3.org/2000/svg" viewBox="0 0 339.31 400.14"><defs><style>.cls-1,.cls-4{fill:#fff;}.cls-1{opacity:0.4;}.cls-2,.cls-3,.cls-5{fill:none;stroke:#fff;}.cls-2,.cls-3{stroke-miterlimit:10;}.cls-2{stroke-width:6.85px;}.cls-3,.cls-5{stroke-linecap:round;}.cls-3{stroke-width:5.79px;}.cls-5{stroke-linejoin:round;stroke-width:11.91px;}</style></defs><g id="Livello_2" data-name="Livello 2"><g id="Livello_2-2" data-name="Livello 2"><path class="cls-1" d="M41,3.43H187.8A37.54,37.54,0,0,1,225.35,41v1.87a0,0,0,0,1,0,0H3.43a0,0,0,0,1,0,0V41A37.54,37.54,0,0,1,41,3.43Z"/><path class="cls-1" d="M41,359H187.8a37.54,37.54,0,0,1,37.54,37.54v1.87a0,0,0,0,1,0,0H3.43a0,0,0,0,1,0,0v-1.87A37.54,37.54,0,0,1,41,359Z" transform="translate(228.77 757.44) rotate(180)"/><rect class="cls-2" x="3.43" y="3.43" width="221.92" height="393.29" rx="37.54"/><line class="cls-2" x1="3.43" y1="42.84" x2="225.35" y2="42.84"/><line class="cls-2" x1="3.43" y1="359.01" x2="225.35" y2="359.01"/><line class="cls-3" x1="92.97" y1="25.28" x2="135.81" y2="25.28"/><circle class="cls-4" cx="114.39" cy="378.29" r="8.57"/><path class="cls-4" d="M189.36,255.81l-16.4-9.7V159l16.4,9.6v-9.93l-12.2-7.14,12.2-7.11v-9.92l-22.84,13.33c-.08,0-.15.1-.23.15a1.88,1.88,0,0,0-.23.16,1.92,1.92,0,0,0-.22.18,1.8,1.8,0,0,0-.2.19,1.9,1.9,0,0,0-.19.21l-.18.21c-.06.07-.1.15-.16.23l-.15.23-.13.26c0,.08-.08.15-.11.23s-.07.21-.11.31-.05.14-.07.22a2.7,2.7,0,0,0-.08.41l0,.14a3.43,3.43,0,0,0,0,.56h0v97a4.29,4.29,0,0,0,2.1,3.69l22.87,13.53Z"/><path class="cls-4" d="M339.31,151.5c0-.13,0-.26,0-.39s0-.11,0-.17,0-.27-.08-.4l0-.15c0-.1-.07-.2-.1-.3s-.05-.16-.08-.23l-.1-.21c-.05-.09-.09-.19-.15-.29l-.1-.15c-.07-.1-.13-.21-.21-.31l-.08-.1c-.09-.11-.18-.22-.28-.32l-.08-.06a2.59,2.59,0,0,0-.35-.31l0,0a2.57,2.57,0,0,0-.44-.29h0l-83.7-48.21a4.27,4.27,0,0,0-4.3,0l-27.24,15.89v9.92l29.41-17.16,75.12,43.27L251.33,195l-16.39-9.61-13-7.62v9.93L247,202.36v87.57l-25.12-14.86v10l27.22,16.1h.05a1.79,1.79,0,0,0,.24.12,1.92,1.92,0,0,0,.25.12c.1.05.2.07.3.11l.23.08.37.07.18,0a5.25,5.25,0,0,0,.56,0,5.07,5.07,0,0,0,.55,0l.2,0,.35-.07.24-.08.29-.1.26-.13.23-.11h0l83.7-48.77a4.29,4.29,0,0,0,2.13-3.7V151.51h0Zm-8.57,94.71L255.6,290V202.37l75.14-43.44Z"/><line class="cls-5" x1="284.61" y1="92.54" x2="295.61" y2="52.27"/><line class="cls-5" x1="306.75" y1="107.1" x2="333.31" y2="80.54"/></g></g></svg>