<?xml version="1.0" encoding="utf-8"?>
<!-- Generator: Adobe Illustrator 26.0.3, SVG Export Plug-In . SVG Version: 6.00 Build 0)  -->
<svg version="1.1" id="Livello_1" xmlns="http://www.w3.org/2000/svg" xmlns:xlink="http://www.w3.org/1999/xlink" x="0px" y="0px"
	 viewBox="0 0 700 700" style="enable-background:new 0 0 700 700;" xml:space="preserve">
<style type="text/css">
	.st0{fill-rule:evenodd;clip-rule:evenodd;fill:#7E79CD;stroke:#C4CCD6;stroke-width:16;stroke-miterlimit:10;}
</style>
<path class="st0" d="M330.7,115.9c-72.4,8.1-139.4,74.9-147.6,147.4c-8.4,74.2,31.7,140.1,92.6,170.2l60.2,93.6
	c3.1,4.8,8.4,7.7,14.1,7.7s11-2.9,14.1-7.7l60.2-93.6c55.5-27.4,93.7-84.6,93.7-150.7C518,183.7,432,104.6,330.7,115.9z
	 M351.6,365.5c-46.9,0.9-85.1-37.4-84.2-84.2c0.8-44.2,36.9-80.2,81.1-81.1c46.9-0.9,85.1,37.4,84.2,84.2
	C431.8,328.6,395.8,364.6,351.6,365.5z"/>
</svg>
