{
    "asset" : {
        "generator" : "Khronos glTF Blender I/O v1.7.33",
        "version" : "2.0"
    },
    "scene" : 0,
    "scenes" : [
        {
            "name" : "Scene",
            "nodes" : [
                0,
                1,
                2,
                3,
                4,
                5,
                6,
                7,
                8
            ]
        }
    ],
    "nodes" : [
        {
            "mesh" : 0,
            "name" : "Cylinder_blue",
            "scale" : [
                0.5051416158676147,
                0.531658947467804,
                0.5103361010551453
            ]
        },
        {
            "mesh" : 1,
            "name" : "Sphere_pink",
            "scale" : [
                0.2659226655960083,
                0.26395565271377563,
                0.2659226655960083
            ],
            "translation" : [
                0,
                0.2674463987350464,
                0.6990575790405273
            ]
        },
        {
            "mesh" : 2,
            "name" : "Cube",
            "rotation" : [
                0,
                0.7771854996681213,
                0,
                0.6292715668678284
            ],
            "scale" : [
                0.10000000149011612,
                0.10000000149011612,
                1.1011070013046265
            ],
            "translation" : [
                -0.0969969630241394,
                0.5811637043952942,
                0.7308968305587769
            ]
        },
        {
            "mesh" : 3,
            "name" : "Sphere_yellow",
            "scale" : [
                0.07672294229269028,
                0.07615542411804199,
                0.07672294229269028
            ],
            "translation" : [
                -0.5836660861968994,
                0.7133132815361023,
                0.8312263488769531
            ]
        },
        {
            "mesh" : 4,
            "name" : "Torus",
            "rotation" : [
                0.7071068286895752,
                0,
                0,
                0.7071068286895752
            ],
            "scale" : [
                0.1944734901189804,
                0.14117246866226196,
                0.1944734901189804
            ],
            "translation" : [
                -0.7534111738204956,
                0.5934353470802307,
                0.04490957409143448
            ]
        },
        {
            "mesh" : 5,
            "name" : "Torus_half",
            "rotation" : [
                0.7071068286895752,
                0,
                0,
                0.7071068286895752
            ],
            "scale" : [
                0.2742520272731781,
                0.18253691494464874,
                0.2742520272731781
            ],
            "translation" : [
                0,
                0.9749081134796143,
                0
            ]
        },
        {
            "mesh" : 6,
            "name" : "Sphere_pink_lil",
            "scale" : [
                0.07672294229269028,
                0.07615542411804199,
                0.07672294229269028
            ],
            "translation" : [
                0,
                0.9788126349449158,
                0
            ]
        },
        {
            "mesh" : 7,
            "name" : "Cylinder",
            "scale" : [
                0.24933958053588867,
                0.24933958053588867,
                0.24933958053588867
            ],
            "translation" : [
                -0.7534111738204956,
                0.202754408121109,
                0.04490957409143448
            ]
        },
        {
            "mesh" : 8,
            "name" : "Cone",
            "rotation" : [
                0,
                0.8312218189239502,
                0,
                0.5559409260749817
            ],
            "scale" : [
                0.182045578956604,
                0.15287621319293976,
                0.182045578956604
            ],
            "translation" : [
                -0.6114782094955444,
                0.1577008217573166,
                0.9694335460662842
            ]
        }
    ],
    "materials" : [
        {
            "doubleSided" : true,
            "name" : "Palette",
            "pbrMetallicRoughness" : {
                "baseColorTexture" : {
                    "index" : 0
                },
                "metallicFactor" : 0.5,
                "roughnessFactor" : 0.4000000059604645
            }
        },
        {
            "doubleSided" : true,
            "emissiveFactor" : [
                1,
                1,
                1
            ],
            "emissiveTexture" : {
                "index" : 1
            },
            "name" : "Palette2",
            "pbrMetallicRoughness" : {
                "baseColorTexture" : {
                    "index" : 2
                },
                "metallicFactor" : 0.800000011920929,
                "roughnessFactor" : 0
            }
        }
    ],
    "meshes" : [
        {
            "name" : "Cylinder",
            "primitives" : [
                {
                    "attributes" : {
                        "POSITION" : 0
                    },
                    "indices" : 1,
                    "material" : 0
                }
            ]
        },
        {
            "name" : "Sphere.007",
            "primitives" : [
                {
                    "attributes" : {
                        "POSITION" : 2
                    },
                    "indices" : 3,
                    "material" : 0
                }
            ]
        },
        {
            "name" : "Cube.001",
            "primitives" : [
                {
                    "attributes" : {
                        "POSITION" : 4
                    },
                    "indices" : 5,
                    "material" : 0
                }
            ]
        },
        {
            "name" : "Sphere.008",
            "primitives" : [
                {
                    "attributes" : {
                        "POSITION" : 6
                    },
                    "indices" : 3,
                    "material" : 1
                }
            ]
        },
        {
            "name" : "Torus",
            "primitives" : [
                {
                    "attributes" : {
                        "POSITION" : 7
                    },
                    "indices" : 8,
                    "material" : 1
                }
            ]
        },
        {
            "name" : "Torus.001",
            "primitives" : [
                {
                    "attributes" : {
                        "POSITION" : 9
                    },
                    "indices" : 10,
                    "material" : 0
                }
            ]
        },
        {
            "name" : "Sphere.009",
            "primitives" : [
                {
                    "attributes" : {
                        "POSITION" : 11
                    },
                    "indices" : 3,
                    "material" : 1
                }
            ]
        },
        {
            "name" : "Cylinder.002",
            "primitives" : [
                {
                    "attributes" : {
                        "POSITION" : 12
                    },
                    "indices" : 13,
                    "material" : 0
                }
            ]
        },
        {
            "name" : "Cone.002",
            "primitives" : [
                {
                    "attributes" : {
                        "POSITION" : 14
                    },
                    "indices" : 15,
                    "material" : 1
                }
            ]
        }
    ],
    "textures" : [
        {
            "sampler" : 0,
            "source" : 0
        },
        {
            "sampler" : 1,
            "source" : 1
        },
        {
            "sampler" : 1,
            "source" : 2
        }
    ],
    "images" : [
        {
            "mimeType" : "image/png",
            "name" : "palette",
            "uri" : "textures/palette.png"
        },
        {
            "mimeType" : "image/png",
            "name" : "ImphenziaPalette01-256-GradientX4-Emission",
            "uri" : "textures/ImphenziaPalette01-256-GradientX4-Emission.png"
        },
        {
            "mimeType" : "image/png",
            "name" : "ImphenziaPalette01-256-GradientX4",
            "uri" : "textures/ImphenziaPalette01-256-GradientX4.png"
        }
    ],
    "accessors" : [
        {
            "bufferView" : 0,
            "componentType" : 5126,
            "count" : 22,
            "max" : [
                0.9898214340209961,
                1.328054666519165,
                0.9678438305854797
            ],
            "min" : [
                -0.9898214340209961,
                0.011421024799346924,
                -0.9916491508483887
            ],
            "type" : "VEC3"
        },
        {
            "bufferView" : 1,
            "componentType" : 5123,
            "count" : 120,
            "type" : "SCALAR"
        },
        {
            "bufferView" : 2,
            "componentType" : 5126,
            "count" : 3261,
            "max" : [
                0.9919999837875366,
                0.9993818998336792,
                0.9919869899749756
            ],
            "min" : [
                -0.9919996857643127,
                -0.9994029998779297,
                -0.9920129776000977
            ],
            "type" : "VEC3"
        },
        {
            "bufferView" : 3,
            "componentType" : 5123,
            "count" : 19554,
            "type" : "SCALAR"
        },
        {
            "bufferView" : 4,
            "componentType" : 5126,
            "count" : 8,
            "max" : [
                0.5,
                0.5,
                0.5
            ],
            "min" : [
                -0.5,
                -0.5,
                -0.5
            ],
            "type" : "VEC3"
        },
        {
            "bufferView" : 5,
            "componentType" : 5123,
            "count" : 36,
            "type" : "SCALAR"
        },
        {
            "bufferView" : 6,
            "componentType" : 5126,
            "count" : 3261,
            "max" : [
                0.9919999837875366,
                0.9993818998336792,
                0.9919869899749756
            ],
            "min" : [
                -0.9919996857643127,
                -0.9994029998779297,
                -0.9920129776000977
            ],
            "type" : "VEC3"
        },
        {
            "bufferView" : 7,
            "componentType" : 5126,
            "count" : 96,
            "max" : [
                0.9770919680595398,
                0.21415771543979645,
                0.977091908454895
            ],
            "min" : [
                -0.9770918488502502,
                -0.2141575664281845,
                -0.9770920276641846
            ],
            "type" : "VEC3"
        },
        {
            "bufferView" : 8,
            "componentType" : 5123,
            "count" : 576,
            "type" : "SCALAR"
        },
        {
            "bufferView" : 9,
            "componentType" : 5126,
            "count" : 64,
            "max" : [
                0.9770919680595398,
                0.21795645356178284,
                0.977091908454895
            ],
            "min" : [
                -0.8436669111251831,
                -0.2179562896490097,
                -0.8645813465118408
            ],
            "type" : "VEC3"
        },
        {
            "bufferView" : 10,
            "componentType" : 5123,
            "count" : 372,
            "type" : "SCALAR"
        },
        {
            "bufferView" : 11,
            "componentType" : 5126,
            "count" : 3261,
            "max" : [
                0.9919999837875366,
                0.9993818998336792,
                0.9919869899749756
            ],
            "min" : [
                -0.9919996857643127,
                -0.9994029998779297,
                -0.9920129776000977
            ],
            "type" : "VEC3"
        },
        {
            "bufferView" : 12,
            "componentType" : 5126,
            "count" : 10,
            "max" : [
                0.9510564804077148,
                0.7952461838722229,
                0.9045085310935974
            ],
            "min" : [
                -0.9510564804077148,
                -0.7952461838722229,
                -0.9045085310935974
            ],
            "type" : "VEC3"
        },
        {
            "bufferView" : 13,
            "componentType" : 5123,
            "count" : 48,
            "type" : "SCALAR"
        },
        {
            "bufferView" : 14,
            "componentType" : 5126,
            "count" : 4,
            "max" : [
                0.8660253882408142,
                1,
                0.5000000596046448
            ],
            "min" : [
                -0.866025447845459,
                -1,
                -1
            ],
            "type" : "VEC3"
        },
        {
            "bufferView" : 15,
            "componentType" : 5123,
            "count" : 12,
            "type" : "SCALAR"
        }
    ],
    "bufferViews" : [
        {
            "buffer" : 0,
            "byteLength" : 264,
            "byteOffset" : 0
        },
        {
            "buffer" : 0,
            "byteLength" : 240,
            "byteOffset" : 264
        },
        {
            "buffer" : 0,
            "byteLength" : 39132,
            "byteOffset" : 504
        },
        {
            "buffer" : 0,
            "byteLength" : 39108,
            "byteOffset" : 39636
        },
        {
            "buffer" : 0,
            "byteLength" : 96,
            "byteOffset" : 78744
        },
        {
            "buffer" : 0,
            "byteLength" : 72,
            "byteOffset" : 78840
        },
        {
            "buffer" : 0,
            "byteLength" : 39132,
            "byteOffset" : 78912
        },
        {
            "buffer" : 0,
            "byteLength" : 1152,
            "byteOffset" : 118044
        },
        {
            "buffer" : 0,
            "byteLength" : 1152,
            "byteOffset" : 119196
        },
        {
            "buffer" : 0,
            "byteLength" : 768,
            "byteOffset" : 120348
        },
        {
            "buffer" : 0,
            "byteLength" : 744,
            "byteOffset" : 121116
        },
        {
            "buffer" : 0,
            "byteLength" : 39132,
            "byteOffset" : 121860
        },
        {
            "buffer" : 0,
            "byteLength" : 120,
            "byteOffset" : 160992
        },
        {
            "buffer" : 0,
            "byteLength" : 96,
            "byteOffset" : 161112
        },
        {
            "buffer" : 0,
            "byteLength" : 48,
            "byteOffset" : 161208
        },
        {
            "buffer" : 0,
            "byteLength" : 24,
            "byteOffset" : 161256
        }
    ],
    "samplers" : [
        {
            "magFilter" : 9728,
            "minFilter" : 9984
        },
        {
            "magFilter" : 9729,
            "minFilter" : 9987
        }
    ],
    "buffers" : [
        {
            "byteLength" : 161280,
            "uri" : "scene.bin"
        }
    ]
}
