{
    "asset" : {
        "generator" : "Khronos glTF Blender I/O v1.7.33",
        "version" : "2.0"
    },
    "scene" : 0,
    "scenes" : [
        {
            "name" : "Scene",
            "nodes" : [
                0,
                1,
                2,
                3,
                4,
                5,
                6
            ]
        }
    ],
    "nodes" : [
        {
            "mesh" : 0,
            "name" : "Cube__0",
            "scale" : [
                4.658217430114746,
                4.658218860626221,
                4.658217906951904
            ],
            "translation" : [
                -0.036893874406814575,
                7.158080101013184,
                0
            ]
        },
        {
            "mesh" : 1,
            "name" : "Mesh_0",
            "rotation" : [
                -0.11556883156299591,
                0.18352019786834717,
                -0.5201932191848755,
                0.8260529041290283
            ],
            "scale" : [
                0.825747549533844,
                0.825747549533844,
                0.825747549533844
            ],
            "translation" : [
                0.08968973159790039,
                2.3077144622802734,
                0
            ]
        },
        {
            "mesh" : 2,
            "name" : "Mesh_0.001",
            "rotation" : [
                0,
                -0.28696250915527344,
                0,
                0.9579418301582336
            ],
            "scale" : [
                0.8640665411949158,
                0.864066481590271,
                0.8640666007995605
            ],
            "translation" : [
                0.11476755142211914,
                13.471063613891602,
                0
            ]
        },
        {
            "mesh" : 3,
            "name" : "Sphere_blue",
            "rotation" : [
                0,
                -0.7071067094802856,
                -0.7071068286895752,
                1.1520231879558196e-07
            ],
            "scale" : [
                4,
                4,
                4
            ],
            "translation" : [
                -32.82460403442383,
                4.5476226806640625,
                12.021306991577148
            ]
        },
        {
            "mesh" : 4,
            "name" : "Sphere_pink",
            "rotation" : [
                0.42916858196258545,
                0.09875812381505966,
                0.047273796051740646,
                0.8965636491775513
            ],
            "scale" : [
                3,
                3,
                3
            ],
            "translation" : [
                29.273426055908203,
                41.52851486206055,
                18.917469024658203
            ]
        },
        {
            "mesh" : 5,
            "name" : "Sphere_green",
            "rotation" : [
                0.5337964296340942,
                0.43959957361221313,
                0.6123412847518921,
                0.3832123279571533
            ],
            "scale" : [
                2,
                2,
                2
            ],
            "translation" : [
                2.2296972274780273,
                6.577999114990234,
                -29.18917465209961
            ]
        },
        {
            "mesh" : 6,
            "name" : "Sphere_yellow",
            "rotation" : [
                0,
                -0.7071067094802856,
                -0.7071068286895752,
                1.1520231879558196e-07
            ],
            "scale" : [
                2.8365375995635986,
                2.8155555725097656,
                2.8365378379821777
            ],
            "translation" : [
                -0.08423519134521484,
                7.561934471130371,
                0.7874717712402344
            ]
        }
    ],
    "animations" : [
        {
            "channels" : [
                {
                    "sampler" : 0,
                    "target" : {
                        "node" : 0,
                        "path" : "rotation"
                    }
                }
            ],
            "name" : "Cube__0Action",
            "samplers" : [
                {
                    "input" : 25,
                    "interpolation" : "LINEAR",
                    "output" : 26
                }
            ]
        },
        {
            "channels" : [
                {
                    "sampler" : 0,
                    "target" : {
                        "node" : 1,
                        "path" : "rotation"
                    }
                }
            ],
            "name" : "Mesh_0Action",
            "samplers" : [
                {
                    "input" : 27,
                    "interpolation" : "LINEAR",
                    "output" : 28
                }
            ]
        },
        {
            "channels" : [
                {
                    "sampler" : 0,
                    "target" : {
                        "node" : 2,
                        "path" : "rotation"
                    }
                }
            ],
            "name" : "Mesh_0.001Action",
            "samplers" : [
                {
                    "input" : 27,
                    "interpolation" : "LINEAR",
                    "output" : 29
                }
            ]
        },
        {
            "channels" : [
                {
                    "sampler" : 0,
                    "target" : {
                        "node" : 3,
                        "path" : "translation"
                    }
                },
                {
                    "sampler" : 1,
                    "target" : {
                        "node" : 3,
                        "path" : "scale"
                    }
                }
            ],
            "name" : "Sphere_blueAction",
            "samplers" : [
                {
                    "input" : 27,
                    "interpolation" : "LINEAR",
                    "output" : 30
                },
                {
                    "input" : 27,
                    "interpolation" : "LINEAR",
                    "output" : 31
                }
            ]
        },
        {
            "channels" : [
                {
                    "sampler" : 0,
                    "target" : {
                        "node" : 4,
                        "path" : "translation"
                    }
                },
                {
                    "sampler" : 1,
                    "target" : {
                        "node" : 4,
                        "path" : "scale"
                    }
                }
            ],
            "name" : "Sphere_pinkAction",
            "samplers" : [
                {
                    "input" : 32,
                    "interpolation" : "LINEAR",
                    "output" : 33
                },
                {
                    "input" : 27,
                    "interpolation" : "LINEAR",
                    "output" : 34
                }
            ]
        },
        {
            "channels" : [
                {
                    "sampler" : 0,
                    "target" : {
                        "node" : 5,
                        "path" : "translation"
                    }
                },
                {
                    "sampler" : 1,
                    "target" : {
                        "node" : 5,
                        "path" : "scale"
                    }
                }
            ],
            "name" : "Sphere_greenAction",
            "samplers" : [
                {
                    "input" : 27,
                    "interpolation" : "LINEAR",
                    "output" : 35
                },
                {
                    "input" : 27,
                    "interpolation" : "LINEAR",
                    "output" : 36
                }
            ]
        }
    ],
    "materials" : [
        {
            "doubleSided" : true,
            "name" : "Palette.001",
            "pbrMetallicRoughness" : {
                "baseColorTexture" : {
                    "index" : 0
                },
                "metallicFactor" : 0.5,
                "roughnessFactor" : 0.4000000059604645
            }
        },
        {
            "doubleSided" : true,
            "emissiveFactor" : [
                1,
                1,
                1
            ],
            "emissiveTexture" : {
                "index" : 1
            },
            "name" : "Palette2.001",
            "pbrMetallicRoughness" : {}
        }
    ],
    "meshes" : [
        {
            "name" : "Cube__0.001",
            "primitives" : [
                {
                    "attributes" : {
                        "POSITION" : 0,
                        "NORMAL" : 1,
                        "TEXCOORD_0" : 2
                    },
                    "indices" : 3,
                    "material" : 0
                }
            ]
        },
        {
            "name" : "Mesh_0.002",
            "primitives" : [
                {
                    "attributes" : {
                        "POSITION" : 4,
                        "NORMAL" : 5,
                        "TEXCOORD_0" : 6
                    },
                    "indices" : 7,
                    "material" : 0
                }
            ]
        },
        {
            "name" : "Mesh_0.003",
            "primitives" : [
                {
                    "attributes" : {
                        "POSITION" : 8,
                        "NORMAL" : 9,
                        "TEXCOORD_0" : 10
                    },
                    "indices" : 11,
                    "material" : 0
                }
            ]
        },
        {
            "name" : "Sphere.002",
            "primitives" : [
                {
                    "attributes" : {
                        "POSITION" : 12,
                        "NORMAL" : 13,
                        "TEXCOORD_0" : 14
                    },
                    "indices" : 15,
                    "material" : 1
                }
            ]
        },
        {
            "name" : "Sphere.001",
            "primitives" : [
                {
                    "attributes" : {
                        "POSITION" : 16,
                        "NORMAL" : 17,
                        "TEXCOORD_0" : 18
                    },
                    "indices" : 15,
                    "material" : 1
                }
            ]
        },
        {
            "name" : "Sphere.007",
            "primitives" : [
                {
                    "attributes" : {
                        "POSITION" : 19,
                        "NORMAL" : 20,
                        "TEXCOORD_0" : 21
                    },
                    "indices" : 15,
                    "material" : 1
                }
            ]
        },
        {
            "name" : "Sphere.004",
            "primitives" : [
                {
                    "attributes" : {
                        "POSITION" : 22,
                        "NORMAL" : 23,
                        "TEXCOORD_0" : 24
                    },
                    "indices" : 15,
                    "material" : 1
                }
            ]
        }
    ],
    "textures" : [
        {
            "sampler" : 0,
            "source" : 0
        },
        {
            "sampler" : 0,
            "source" : 1
        }
    ],
    "images" : [
        {
            "mimeType" : "image/png",
            "name" : "palette",
            "uri" : "textures/palette.png"
        },
        {
            "mimeType" : "image/png",
            "name" : "ImphenziaPalette01-256-GradientX4-Emission",
            "uri" : "textures/ImphenziaPalette01-256-GradientX4-Emission.png"
        }
    ],
    "accessors" : [
        {
            "bufferView" : 0,
            "componentType" : 5126,
            "count" : 2618,
            "max" : [
                1.06948721408844,
                1.0579942464828491,
                1.0523706674575806
            ],
            "min" : [
                -0.8832887411117554,
                -0.8951379656791687,
                -0.9009609818458557
            ],
            "type" : "VEC3"
        },
        {
            "bufferView" : 1,
            "componentType" : 5126,
            "count" : 2618,
            "type" : "VEC3"
        },
        {
            "bufferView" : 2,
            "componentType" : 5126,
            "count" : 2618,
            "type" : "VEC2"
        },
        {
            "bufferView" : 3,
            "componentType" : 5123,
            "count" : 13824,
            "type" : "SCALAR"
        },
        {
            "bufferView" : 4,
            "componentType" : 5126,
            "count" : 32060,
            "max" : [
                23.88279914855957,
                24.353599548339844,
                4.353549957275391
            ],
            "min" : [
                -23.88279914855957,
                -22.56909942626953,
                -4.353549957275391
            ],
            "type" : "VEC3"
        },
        {
            "bufferView" : 5,
            "componentType" : 5126,
            "count" : 32060,
            "type" : "VEC3"
        },
        {
            "bufferView" : 6,
            "componentType" : 5126,
            "count" : 32060,
            "type" : "VEC2"
        },
        {
            "bufferView" : 7,
            "componentType" : 5123,
            "count" : 143595,
            "type" : "SCALAR"
        },
        {
            "bufferView" : 8,
            "componentType" : 5126,
            "count" : 31899,
            "max" : [
                23.88279914855957,
                24.353599548339844,
                4.353549957275391
            ],
            "min" : [
                -23.88279914855957,
                -22.56909942626953,
                -4.353549957275391
            ],
            "type" : "VEC3"
        },
        {
            "bufferView" : 9,
            "componentType" : 5126,
            "count" : 31899,
            "type" : "VEC3"
        },
        {
            "bufferView" : 10,
            "componentType" : 5126,
            "count" : 31899,
            "type" : "VEC2"
        },
        {
            "bufferView" : 11,
            "componentType" : 5123,
            "count" : 143595,
            "type" : "SCALAR"
        },
        {
            "bufferView" : 12,
            "componentType" : 5126,
            "count" : 3261,
            "max" : [
                0.9919999837875366,
                0.9993818998336792,
                0.9919869899749756
            ],
            "min" : [
                -0.9919996857643127,
                -0.9994029998779297,
                -0.9920129776000977
            ],
            "type" : "VEC3"
        },
        {
            "bufferView" : 13,
            "componentType" : 5126,
            "count" : 3261,
            "type" : "VEC3"
        },
        {
            "bufferView" : 14,
            "componentType" : 5126,
            "count" : 3261,
            "type" : "VEC2"
        },
        {
            "bufferView" : 15,
            "componentType" : 5123,
            "count" : 19554,
            "type" : "SCALAR"
        },
        {
            "bufferView" : 16,
            "componentType" : 5126,
            "count" : 3261,
            "max" : [
                0.99200439453125,
                0.9993375539779663,
                0.9920539259910583
            ],
            "min" : [
                -0.9919952750205994,
                -0.9994473457336426,
                -0.9919460415840149
            ],
            "type" : "VEC3"
        },
        {
            "bufferView" : 17,
            "componentType" : 5126,
            "count" : 3261,
            "type" : "VEC3"
        },
        {
            "bufferView" : 18,
            "componentType" : 5126,
            "count" : 3261,
            "type" : "VEC2"
        },
        {
            "bufferView" : 19,
            "componentType" : 5126,
            "count" : 3261,
            "max" : [
                0.9919999837875366,
                0.9993818998336792,
                0.9919869899749756
            ],
            "min" : [
                -0.9919996857643127,
                -0.9994029998779297,
                -0.9920129776000977
            ],
            "type" : "VEC3"
        },
        {
            "bufferView" : 20,
            "componentType" : 5126,
            "count" : 3261,
            "type" : "VEC3"
        },
        {
            "bufferView" : 21,
            "componentType" : 5126,
            "count" : 3261,
            "type" : "VEC2"
        },
        {
            "bufferView" : 22,
            "componentType" : 5126,
            "count" : 3261,
            "max" : [
                0.6996814608573914,
                0.7063566446304321,
                0.6964792609214783
            ],
            "min" : [
                -0.6980029940605164,
                -0.7017436027526855,
                -0.701205313205719
            ],
            "type" : "VEC3"
        },
        {
            "bufferView" : 23,
            "componentType" : 5126,
            "count" : 3261,
            "type" : "VEC3"
        },
        {
            "bufferView" : 24,
            "componentType" : 5126,
            "count" : 3261,
            "type" : "VEC2"
        },
        {
            "bufferView" : 25,
            "componentType" : 5126,
            "count" : 253,
            "max" : [
                10.5
            ],
            "min" : [
                0
            ],
            "type" : "SCALAR"
        },
        {
            "bufferView" : 26,
            "componentType" : 5126,
            "count" : 253,
            "type" : "VEC4"
        },
        {
            "bufferView" : 27,
            "componentType" : 5126,
            "count" : 252,
            "max" : [
                10.458333333333334
            ],
            "min" : [
                0
            ],
            "type" : "SCALAR"
        },
        {
            "bufferView" : 28,
            "componentType" : 5126,
            "count" : 252,
            "type" : "VEC4"
        },
        {
            "bufferView" : 29,
            "componentType" : 5126,
            "count" : 252,
            "type" : "VEC4"
        },
        {
            "bufferView" : 30,
            "componentType" : 5126,
            "count" : 252,
            "type" : "VEC3"
        },
        {
            "bufferView" : 31,
            "componentType" : 5126,
            "count" : 252,
            "type" : "VEC3"
        },
        {
            "bufferView" : 32,
            "componentType" : 5126,
            "count" : 251,
            "max" : [
                10.416666666666666
            ],
            "min" : [
                0
            ],
            "type" : "SCALAR"
        },
        {
            "bufferView" : 33,
            "componentType" : 5126,
            "count" : 251,
            "type" : "VEC3"
        },
        {
            "bufferView" : 34,
            "componentType" : 5126,
            "count" : 252,
            "type" : "VEC3"
        },
        {
            "bufferView" : 35,
            "componentType" : 5126,
            "count" : 252,
            "type" : "VEC3"
        },
        {
            "bufferView" : 36,
            "componentType" : 5126,
            "count" : 252,
            "type" : "VEC3"
        }
    ],
    "bufferViews" : [
        {
            "buffer" : 0,
            "byteLength" : 31416,
            "byteOffset" : 0
        },
        {
            "buffer" : 0,
            "byteLength" : 31416,
            "byteOffset" : 31416
        },
        {
            "buffer" : 0,
            "byteLength" : 20944,
            "byteOffset" : 62832
        },
        {
            "buffer" : 0,
            "byteLength" : 27648,
            "byteOffset" : 83776
        },
        {
            "buffer" : 0,
            "byteLength" : 384720,
            "byteOffset" : 111424
        },
        {
            "buffer" : 0,
            "byteLength" : 384720,
            "byteOffset" : 496144
        },
        {
            "buffer" : 0,
            "byteLength" : 256480,
            "byteOffset" : 880864
        },
        {
            "buffer" : 0,
            "byteLength" : 287190,
            "byteOffset" : 1137344
        },
        {
            "buffer" : 0,
            "byteLength" : 382788,
            "byteOffset" : 1424536
        },
        {
            "buffer" : 0,
            "byteLength" : 382788,
            "byteOffset" : 1807324
        },
        {
            "buffer" : 0,
            "byteLength" : 255192,
            "byteOffset" : 2190112
        },
        {
            "buffer" : 0,
            "byteLength" : 287190,
            "byteOffset" : 2445304
        },
        {
            "buffer" : 0,
            "byteLength" : 39132,
            "byteOffset" : 2732496
        },
        {
            "buffer" : 0,
            "byteLength" : 39132,
            "byteOffset" : 2771628
        },
        {
            "buffer" : 0,
            "byteLength" : 26088,
            "byteOffset" : 2810760
        },
        {
            "buffer" : 0,
            "byteLength" : 39108,
            "byteOffset" : 2836848
        },
        {
            "buffer" : 0,
            "byteLength" : 39132,
            "byteOffset" : 2875956
        },
        {
            "buffer" : 0,
            "byteLength" : 39132,
            "byteOffset" : 2915088
        },
        {
            "buffer" : 0,
            "byteLength" : 26088,
            "byteOffset" : 2954220
        },
        {
            "buffer" : 0,
            "byteLength" : 39132,
            "byteOffset" : 2980308
        },
        {
            "buffer" : 0,
            "byteLength" : 39132,
            "byteOffset" : 3019440
        },
        {
            "buffer" : 0,
            "byteLength" : 26088,
            "byteOffset" : 3058572
        },
        {
            "buffer" : 0,
            "byteLength" : 39132,
            "byteOffset" : 3084660
        },
        {
            "buffer" : 0,
            "byteLength" : 39132,
            "byteOffset" : 3123792
        },
        {
            "buffer" : 0,
            "byteLength" : 26088,
            "byteOffset" : 3162924
        },
        {
            "buffer" : 0,
            "byteLength" : 1012,
            "byteOffset" : 3189012
        },
        {
            "buffer" : 0,
            "byteLength" : 4048,
            "byteOffset" : 3190024
        },
        {
            "buffer" : 0,
            "byteLength" : 1008,
            "byteOffset" : 3194072
        },
        {
            "buffer" : 0,
            "byteLength" : 4032,
            "byteOffset" : 3195080
        },
        {
            "buffer" : 0,
            "byteLength" : 4032,
            "byteOffset" : 3199112
        },
        {
            "buffer" : 0,
            "byteLength" : 3024,
            "byteOffset" : 3203144
        },
        {
            "buffer" : 0,
            "byteLength" : 3024,
            "byteOffset" : 3206168
        },
        {
            "buffer" : 0,
            "byteLength" : 1004,
            "byteOffset" : 3209192
        },
        {
            "buffer" : 0,
            "byteLength" : 3012,
            "byteOffset" : 3210196
        },
        {
            "buffer" : 0,
            "byteLength" : 3024,
            "byteOffset" : 3213208
        },
        {
            "buffer" : 0,
            "byteLength" : 3024,
            "byteOffset" : 3216232
        },
        {
            "buffer" : 0,
            "byteLength" : 3024,
            "byteOffset" : 3219256
        }
    ],
    "samplers" : [
        {
            "magFilter" : 9729,
            "minFilter" : 9987
        }
    ],
    "buffers" : [
        {
            "byteLength" : 3222280,
            "uri" : "scene.bin"
        }
    ]
}
